<?xml version="1.0" encoding="UTF-8"?>
<svg id="a" data-name="Layer 1" xmlns="http://www.w3.org/2000/svg" width="1000" height="1000" viewBox="0 0 1000 1000">
  <g>
    <path d="M196.05,333.45l-8.166-45.327h-51.453l-8.166,45.327h-45.736L139.698,47.606h44.92l57.169,285.844h-45.736Zm-51.861-90.245h35.934l-17.966-102.496-17.969,102.496Z" fill="#fff"/>
    <path d="M418.597,333.45h-45.734l-23.277-114.747h-20.418v114.747h-44.917V47.606h67.785c19.326,0,35.118,5.716,47.367,17.15,13.609,12.525,20.418,30.218,20.418,53.086v30.626c0,23.141-6.809,40.975-20.418,53.493-1.906,1.908-4.083,3.675-6.533,5.309l25.726,126.179Zm-43.692-215.608c0-9.526-2.042-16.335-6.128-20.418-3.54-3.266-9.124-4.9-16.741-4.9h-22.868v81.261h22.868c7.617,0,13.201-1.633,16.741-4.9,4.086-3.81,6.128-10.618,6.128-20.417v-30.626Z" fill="#fff"/>
    <path d="M466.78,333.45V47.606h44.917V333.45h-44.917Z" fill="#fff"/>
    <path d="M626.03,336.717c-19.602,0-35.394-5.577-47.37-16.742-13.615-13.067-20.418-30.894-20.418-53.494v-37.159h44.92v37.159c0,9.801,2.042,16.608,6.125,20.418,3.534,3.266,9.118,4.9,16.744,4.9,7.89,0,13.474-1.633,16.741-4.9,4.083-3.535,6.125-10.343,6.125-20.418v-17.967c0-12.518-5.041-23.409-15.107-32.668-2.182-1.901-7.899-5.442-17.152-10.618-12.799-6.8-22.19-12.793-28.176-17.967-9.799-8.71-17.29-18.643-22.457-29.81-5.176-11.16-7.761-23.136-7.761-35.934v-6.943c0-22.592,6.803-40.426,20.418-53.493,11.976-11.16,27.768-16.742,47.37-16.742s35.385,5.583,47.367,16.742c13.609,13.067,20.418,30.901,20.418,53.493v24.91h-44.92v-24.91c0-10.068-2.042-16.876-6.125-20.417-3.266-3.266-8.851-4.9-16.741-4.9-7.626,0-13.21,1.633-16.744,4.9-4.083,3.816-6.125,10.618-6.125,20.417v6.943c0,12.524,5.035,23.275,15.107,32.259,2.72,2.182,8.028,5.449,15.927,9.801,14.153,7.624,23.952,13.884,29.401,18.784,20.142,17.967,30.218,40.019,30.218,66.152v17.967c0,22.601-6.809,40.427-20.418,53.494-11.982,11.165-27.768,16.742-47.367,16.742Z" fill="#fff"/>
    <path d="M858.786,92.524h-73.504v71.87h50.636v44.918h-50.636v79.219h73.504v44.918h-118.421V47.606h118.421v44.918Z" fill="#fff"/>
  </g>
  <path d="M87.253,421.135h215.559v8.52H87.253v-8.52Z" fill="#fff"/>
  <g>
    <path d="M363.519,405.979v15.178h30.451v15.078h-30.451v23.653h-19.514v-68.987h54.105v15.078h-34.592Z" fill="#fff"/>
    <path d="M451.379,456.636c-5.814-3.088-10.381-7.357-13.7-12.811-3.318-5.453-4.977-11.596-4.977-18.431s1.659-12.975,4.977-18.429c3.318-5.453,7.886-9.722,13.7-12.811,5.814-3.088,12.367-4.632,19.663-4.632s13.846,1.544,19.66,4.632c5.814,3.089,10.381,7.358,13.7,12.811,3.315,5.454,4.977,11.598,4.977,18.429s-1.662,12.978-4.977,18.431c-3.318,5.454-7.886,9.724-13.7,12.811-5.814,3.089-12.367,4.632-19.66,4.632s-13.849-1.543-19.663-4.632Zm29.121-13.995c2.825-1.642,5.06-3.957,6.702-6.947,1.642-2.989,2.464-6.421,2.464-10.3s-.822-7.308-2.464-10.298c-1.642-2.989-3.877-5.305-6.702-6.947s-5.977-2.464-9.459-2.464-6.639,.822-9.462,2.464c-2.825,1.642-5.06,3.959-6.702,6.947-1.642,2.99-2.464,6.423-2.464,10.298s.822,7.311,2.464,10.3c1.642,2.99,3.877,5.305,6.702,6.947,2.822,1.643,5.977,2.464,9.462,2.464s6.633-.821,9.459-2.464Z" fill="#fff"/>
    <path d="M579.349,441.558h-10.642v18.33h-19.514v-68.987h31.537c6.241,0,11.659,1.034,16.259,3.105,4.599,2.069,8.146,5.026,10.645,8.87,2.496,3.843,3.745,8.361,3.745,13.551,0,4.993-1.166,9.347-3.499,13.058-2.332,3.712-5.668,6.621-10.003,8.722l14.88,21.681h-20.892l-12.516-18.33Zm9.264-32.622c-2.037-1.774-5.06-2.661-9.066-2.661h-10.84v20.203h10.84c4.006,0,7.029-.87,9.066-2.612,2.034-1.739,3.055-4.221,3.055-7.44s-1.02-5.717-3.055-7.49Z" fill="#fff"/>
  </g>
  <path d="M649.123,421.135h209.578v8.52h-209.578v-8.52Z" fill="#fff"/>
  <g>
    <path d="M955.399,444.57l-372.224,70.738v-24.242L44.601,593.095v362.565l451.578-85.549v22.703l459.219-87.27-66.857-163.338,66.857-197.637ZM189.22,709.075l-33.781,6.565v-19.038c0-7.57-1.433-12.413-4.298-14.519-2.662-1.938-6.96-2.331-12.894-1.178-5.737,1.115-9.932,3.159-12.591,6.132-3.072,3.466-4.608,8.88-4.608,16.25v114.231c0,7.37,1.536,12.191,4.608,14.459,2.659,1.94,6.854,2.353,12.591,1.236,5.934-1.153,10.232-3.216,12.894-6.191,2.865-3.215,4.298-8.614,4.298-16.19v-27.637l33.781-6.565v27.637c0,16.995-5.121,31.395-15.356,43.211-9.009,10.148-20.88,16.648-35.617,19.514-14.336,2.787-26.207,.901-35.623-5.666-10.238-8.244-15.353-20.66-15.353-37.242v-114.232c0-16.582,5.115-30.981,15.353-43.211,9.416-10.221,21.287-16.727,35.623-19.514,14.737-2.865,26.609-.974,35.617,5.666,10.235,7.837,15.356,20.252,15.356,37.241v19.041Zm147.086,116.962l-33.775,6.565v-93.35l-34.394,6.685v93.35l-33.778,6.568v-214.954l33.778-6.565v87.823l34.394-6.685v-87.823l33.775-6.566v214.953Zm151.078-168.471c0,17.402-5.118,31.806-15.353,43.211-1.433,1.714-3.072,3.361-4.914,4.946l19.347,91.127-34.391,6.685-17.505-82.886-15.353,2.983v86.29l-33.778,6.565v-214.953l50.973-9.907c14.534-2.825,26.411-.834,35.62,5.973,10.235,7.429,15.353,19.739,15.353,36.936v23.031Zm82.377,149.363l-34.408,6.688v-214.953l34.408-6.688v214.953Zm148.897-174.805l-34.408,6.689v-18.731c0-7.57-1.565-12.387-4.694-14.44-2.502-1.971-6.78-2.368-12.823-1.193-5.843,1.136-10.118,3.195-12.829,6.179-3.126,3.476-4.691,8.894-4.691,16.264v5.221c0,9.419,3.857,16.754,11.574,22.009,2.083,1.235,6.149,2.903,12.201,4.999,10.84,3.626,18.347,6.873,22.522,9.747,15.43,10.51,23.147,25.593,23.147,45.247v13.511c0,16.995-5.212,31.414-15.64,43.27-9.178,10.179-21.27,16.721-36.285,19.64-15.018,2.92-27.113,1.079-36.288-5.533-10.43-7.801-15.642-20.193-15.642-37.188v-27.944l34.411-6.689v27.944c0,7.37,1.565,12.187,4.691,14.44,2.711,1.933,6.986,2.328,12.829,1.192,6.043-1.175,10.321-3.232,12.823-6.178,3.129-3.264,4.694-8.688,4.694-16.264v-13.511c0-9.416-3.863-16.855-11.574-22.316-1.673-1.105-6.055-2.918-13.138-5.433-9.806-3.206-17.001-6.314-21.585-9.314-7.507-5.09-13.247-11.446-17.207-19.071-3.963-7.622-5.943-16.243-5.943-25.868v-5.221c0-16.989,5.212-31.412,15.642-43.267,9.175-10.175,21.27-16.724,36.288-19.644,15.015-2.918,27.107-1.07,36.285,5.537,10.427,7.8,15.64,20.196,15.64,37.185v18.731Zm140.146-62.555l-35.036,6.811v181.175l-34.411,6.689v-181.175l-35.036,6.81v-33.778l104.483-20.31v33.778Z" fill="#e5231f"/>
    <path d="M449.001,626.642c-2.665-1.938-6.86-2.353-12.591-1.238l-17.196,3.341v61.108l17.196-3.341c5.731-1.115,9.926-3.158,12.591-6.132,3.072-3.461,4.608-8.88,4.608-16.25v-23.03c0-7.164-1.536-11.985-4.608-14.459Z" fill="#e5231f"/>
  </g>
</svg>