<svg xmlns="http://www.w3.org/2000/svg" width="630" height="128" viewBox="0 0 630 128">
  <g id="Group_5" data-name="Group 5" transform="translate(-434 -1029)">
    <path id="rc" d="M64,0a64,64,0,1,0,64,64A63.846,63.846,0,0,0,64,0Zm44,77.067-5.6,5.6L82.933,63.2A37.482,37.482,0,0,0,56,52h-.267C42.667,52,32,57.333,32,64S42.667,76,55.733,76a36.774,36.774,0,0,0,24.8-9.333l5.6,5.6A47.542,47.542,0,0,1,55.733,84H53.067C34.667,83.2,20,74.667,20,64c0-10.4,14.667-19.2,33.067-20h2.667a46.214,46.214,0,0,1,32.8,13.6l.8.533L102.4,45.067l5.6,5.6L94.933,64ZM68.263,59.631a15.744,15.744,0,0,1-1.012,4.833A15.536,15.536,0,0,1,64.924,68.8a.669.669,0,0,1-.52.249.679.679,0,0,1-.228-.04.668.668,0,0,1-.439-.641,15.539,15.539,0,0,1,1.013-4.836A15.73,15.73,0,0,1,67.076,59.2a.668.668,0,0,1,.52-.251.679.679,0,0,1,.228.04A.67.67,0,0,1,68.263,59.631Zm-9.987-1.817a30.863,30.863,0,0,1-1.692,6.648,30.472,30.472,0,0,1-2.975,6.171.669.669,0,0,1-.557.3.679.679,0,0,1-.228-.04.667.667,0,0,1-.435-.7,30.479,30.479,0,0,1,1.692-6.651,30.891,30.891,0,0,1,2.973-6.168.666.666,0,0,1,.557-.3.679.679,0,0,1,.228.04A.663.663,0,0,1,58.276,57.813ZM46.929,59.631a15.744,15.744,0,0,1-1.012,4.833A15.536,15.536,0,0,1,43.591,68.8a.669.669,0,0,1-.52.249.679.679,0,0,1-.228-.04.668.668,0,0,1-.439-.641A17.327,17.327,0,0,1,45.743,59.2a.668.668,0,0,1,.52-.251.679.679,0,0,1,.228.04A.67.67,0,0,1,46.929,59.631Z" transform="translate(434 1029)" fill="#801731"/>
    <text id="Resurse_Cre_tine" data-name="Resurse Creștine" transform="translate(594 1113)" fill="#801731" font-size="56" font-family="Arial" font-weight="800"><tspan x="0" y="0">Resurse Creștine</tspan></text>
  </g>
</svg>
