<?xml version="1.0" standalone="no"?>
<!DOCTYPE svg PUBLIC "-//W3C//DTD SVG 20010904//EN"
 "http://www.w3.org/TR/2001/REC-SVG-20010904/DTD/svg10.dtd">
<svg version="1.0" xmlns="http://www.w3.org/2000/svg"
 width="64.000000pt" height="64.000000pt" viewBox="0 0 64.000000 64.000000"
 preserveAspectRatio="xMidYMid meet">

<g transform="translate(0.000000,64.000000) scale(0.100000,-0.100000)"
fill="#000000" stroke="none">
<path d="M105 606 c-16 -7 -41 -26 -55 -41 l-25 -27 0 -217 c0 -308 -7 -301
297 -301 297 0 298 1 298 298 0 299 3 296 -285 299 -153 2 -207 0 -230 -11z
m57 -205 c3 -10 145 -14 260 -9 32 2 58 -1 58 -6 0 -4 11 -1 25 8 13 9 26 16
28 16 6 0 0 -41 -8 -62 -5 -12 -3 -18 6 -18 7 0 9 -3 6 -7 -4 -3 -2 -12 4 -20
9 -10 8 -13 -3 -13 -8 0 -23 -9 -33 -20 -14 -15 -30 -20 -64 -19 -26 1 -60 -5
-78 -14 -18 -10 -53 -17 -80 -16 -26 0 -79 -1 -118 -3 l-70 -3 24 97 c21 89
34 114 43 89z"/>
</g>
</svg>
